<?xml version="1.0" encoding="UTF-8"?>
<!DOCTYPE svg PUBLIC "-//W3C//DTD SVG 1.1//EN" "http://www.w3.org/Graphics/SVG/1.1/DTD/svg11.dtd">
<svg xmlns="http://www.w3.org/2000/svg" version="1.1" width="500px" height="500px" style="shape-rendering:geometricPrecision; text-rendering:geometricPrecision; image-rendering:optimizeQuality; fill-rule:evenodd; clip-rule:evenodd" xmlns:xlink="http://www.w3.org/1999/xlink">
<g><path style="opacity:1" fill="#fefefe" d="M -0.5,-0.5 C 166.167,-0.5 332.833,-0.5 499.5,-0.5C 499.5,166.167 499.5,332.833 499.5,499.5C 332.833,499.5 166.167,499.5 -0.5,499.5C -0.5,332.833 -0.5,166.167 -0.5,-0.5 Z"/></g>
<g><path style="opacity:1" fill="#273462" d="M 248.5,175.5 C 248.5,176.167 248.833,176.5 249.5,176.5C 249.5,184.5 249.5,192.5 249.5,200.5C 240.749,200.803 232.082,200.47 223.5,199.5C 216.202,191.702 208.702,184.035 201,176.5C 200.5,168.507 200.334,160.507 200.5,152.5C 209.173,152.334 217.84,152.5 226.5,153C 234.036,160.368 241.369,167.868 248.5,175.5 Z"/></g>
<g><path style="opacity:1" fill="#514ba7" d="M 298.5,200.5 C 289.749,200.803 281.082,200.47 272.5,199.5C 265.167,191.5 257.5,183.833 249.5,176.5C 248.833,176.5 248.5,176.167 248.5,175.5C 249.492,168.018 249.825,160.352 249.5,152.5C 258.173,152.334 266.84,152.5 275.5,153C 283,160.5 290.5,168 298,175.5C 298.5,183.827 298.666,192.16 298.5,200.5 Z"/></g>
<g><path style="opacity:1" fill="#f7f7fa" d="M 249.5,176.5 C 257.5,183.833 265.167,191.5 272.5,199.5C 265.018,200.492 257.352,200.825 249.5,200.5C 249.5,192.5 249.5,184.5 249.5,176.5 Z"/></g>
<g><path style="opacity:1" fill="#9a9ac4" d="M 223.5,199.5 C 232.082,200.47 240.749,200.803 249.5,200.5C 257.352,200.825 265.018,200.492 272.5,199.5C 281.082,200.47 289.749,200.803 298.5,200.5C 290.833,201.167 283.167,201.833 275.5,202.5C 266.918,201.53 258.251,201.197 249.5,201.5C 241.648,201.175 233.982,201.508 226.5,202.5C 218.252,201.531 209.918,201.198 201.5,201.5C 201.5,209.5 201.5,217.5 201.5,225.5C 200.507,217.35 200.174,209.017 200.5,200.5C 208.352,200.825 216.018,200.492 223.5,199.5 Z"/></g>
<g><path style="opacity:1" fill="#514ba7" d="M 226.5,202.5 C 234.132,209.631 241.632,216.964 249,224.5C 249.5,216.841 249.666,209.174 249.5,201.5C 258.251,201.197 266.918,201.53 275.5,202.5C 283.132,209.631 290.632,216.964 298,224.5C 298.5,232.827 298.666,241.16 298.5,249.5C 290.16,249.666 281.827,249.5 273.5,249C 265.667,241.167 257.833,233.333 250,225.5C 249.5,233.493 249.334,241.493 249.5,249.5C 241.16,249.666 232.827,249.5 224.5,249C 216.631,241.298 208.964,233.465 201.5,225.5C 201.5,217.5 201.5,209.5 201.5,201.5C 209.918,201.198 218.252,201.531 226.5,202.5 Z"/></g>
<g><path style="opacity:1" fill="#fefefe" d="M 226.5,202.5 C 233.982,201.508 241.648,201.175 249.5,201.5C 249.666,209.174 249.5,216.841 249,224.5C 241.632,216.964 234.132,209.631 226.5,202.5 Z"/></g>
<g><path style="opacity:1" fill="#2b3865" d="M 178.5,304.5 C 177.082,306.308 175.082,306.975 172.5,306.5C 171.172,302.746 168.506,301.579 164.5,303C 163.065,305.267 163.398,307.267 165.5,309C 170.785,309.645 175.285,311.811 179,315.5C 180.098,319.505 179.265,323.005 176.5,326C 171.924,327.476 167.257,327.81 162.5,327C 158.677,325.359 156.677,322.526 156.5,318.5C 158.833,318.5 161.167,318.5 163.5,318.5C 164.807,322.454 167.474,323.454 171.5,321.5C 172.614,320.277 172.781,318.944 172,317.5C 169.001,315.956 165.834,314.789 162.5,314C 156.392,310.676 155.059,306.01 158.5,300C 164.719,296.593 170.886,296.76 177,300.5C 177.791,301.745 178.291,303.078 178.5,304.5 Z"/></g>
<g><path style="opacity:1" fill="#293663" d="M 214.5,303.5 C 211.167,303.5 207.833,303.5 204.5,303.5C 204.5,311.5 204.5,319.5 204.5,327.5C 202.5,327.5 200.5,327.5 198.5,327.5C 198.5,319.5 198.5,311.5 198.5,303.5C 195.167,303.5 191.833,303.5 188.5,303.5C 188.5,301.5 188.5,299.5 188.5,297.5C 197.167,297.5 205.833,297.5 214.5,297.5C 214.5,299.5 214.5,301.5 214.5,303.5 Z"/></g>
<g><path style="opacity:1" fill="#2d3a66" d="M 225.5,297.5 C 231.833,297.5 238.167,297.5 244.5,297.5C 244.5,299.5 244.5,301.5 244.5,303.5C 240.5,303.5 236.5,303.5 232.5,303.5C 232.5,305.5 232.5,307.5 232.5,309.5C 236.167,309.5 239.833,309.5 243.5,309.5C 243.5,311.5 243.5,313.5 243.5,315.5C 239.833,315.5 236.167,315.5 232.5,315.5C 232.5,317.5 232.5,319.5 232.5,321.5C 236.833,321.5 241.167,321.5 245.5,321.5C 245.5,323.5 245.5,325.5 245.5,327.5C 238.833,327.5 232.167,327.5 225.5,327.5C 225.5,317.5 225.5,307.5 225.5,297.5 Z"/></g>
<g><path style="opacity:1" fill="#253361" d="M 263.5,297.5 C 263.5,305.5 263.5,313.5 263.5,321.5C 267.833,321.5 272.167,321.5 276.5,321.5C 276.5,323.5 276.5,325.5 276.5,327.5C 270.167,327.5 263.833,327.5 257.5,327.5C 257.5,317.5 257.5,307.5 257.5,297.5C 259.5,297.5 261.5,297.5 263.5,297.5 Z"/></g>
<g><path style="opacity:1" fill="#aeb4c4" d="M 263.5,297.5 C 261.5,297.5 259.5,297.5 257.5,297.5C 257.5,307.5 257.5,317.5 257.5,327.5C 263.833,327.5 270.167,327.5 276.5,327.5C 276.5,325.5 276.5,323.5 276.5,321.5C 272.167,321.5 267.833,321.5 263.5,321.5C 263.5,313.5 263.5,305.5 263.5,297.5 Z"/></g>
<g><path style="opacity:1" fill="#2a3764" d="M 287.5,297.5 C 289.833,297.5 292.167,297.5 294.5,297.5C 294.5,305.5 294.5,313.5 294.5,321.5C 298.833,321.5 303.167,321.5 307.5,321.5C 307.5,323.5 307.5,325.5 307.5,327.5C 300.833,327.5 294.167,327.5 287.5,327.5C 287.5,317.5 287.5,307.5 287.5,297.5 Z"/></g>
<g><path style="opacity:1" fill="#293664" d="M 318.5,297.5 C 323.844,297.334 329.177,297.501 334.5,298C 341.053,300.73 343.22,305.563 341,312.5C 340.027,314.64 338.527,316.307 336.5,317.5C 338.375,320.751 340.375,323.918 342.5,327C 339.833,327.667 337.167,327.667 334.5,327C 333.084,324.165 331.417,321.498 329.5,319C 327.866,318.506 326.199,318.34 324.5,318.5C 324.5,321.5 324.5,324.5 324.5,327.5C 322.5,327.5 320.5,327.5 318.5,327.5C 318.5,317.5 318.5,307.5 318.5,297.5 Z"/></g>
<g><path style="opacity:1" fill="#f0f1f4" d="M 324.5,303.5 C 327.187,303.336 329.854,303.503 332.5,304C 336.5,306.667 336.5,309.333 332.5,312C 329.854,312.497 327.187,312.664 324.5,312.5C 324.5,309.5 324.5,306.5 324.5,303.5 Z"/></g>
<g><path style="opacity:1" fill="#616b8c" d="M 214.5,303.5 C 211.713,304.477 208.713,304.81 205.5,304.5C 205.825,312.352 205.492,320.018 204.5,327.5C 204.5,319.5 204.5,311.5 204.5,303.5C 207.833,303.5 211.167,303.5 214.5,303.5 Z"/></g>
<g><path style="opacity:1" fill="#a8adbf" d="M 178.5,304.5 C 179.404,305.209 179.737,306.209 179.5,307.5C 176.941,307.802 174.607,307.468 172.5,306.5C 175.082,306.975 177.082,306.308 178.5,304.5 Z"/></g>
</svg>
